# xmcd
# Track frame offsets:
# 150
# 17416
# 64179
# 75784
# 95086
# 109029
# 121916
# 147570
# 164589
# 175077
#
# Disc length: 2515 seconds
# Revision: 0
# Processed by: cddbd v1.5.1PL0 Copyright (c) Steve Scherf et al.
# Submitted via: VisiTrax 2.9.10.220 - For more info visit www.synapsa.com
#
DISCID=7b09d10a
DTITLE=Various Artist - Blues Guitar Legends
DYEAR=1900
DGENRE=Blues
TTITLE0=B.B. King - Sweet Sixteen
TTITLE1=Stevie Ray Vaughan - Flood Down in Texas (Live)
TTITLE2=Albert King - Crosscut Saw
TTITLE3=Buddy Guy and Junior Wells - T-Bone Shuffle
TTITLE4=Elmore James - It Hurts Me Too
TTITLE5=Freddie King - San-Ho-Zay
TTITLE6=Otis Rush - Gambler's Blues
TTITLE7=T-Bone Walker - T-Bone Blues
TTITLE8=Albert Collins and His Rhythm Rockers - The Freeze
TTITLE9=Guitar Slim - Story of My Life
EXTD=
EXTT0=
EXTT1=
EXTT2=
EXTT3=
EXTT4=
EXTT5=
EXTT6=
EXTT7=
EXTT8=
EXTT9=
PLAYORDER=
